<svg xmlns="http://www.w3.org/2000/svg" viewBox="0 0 500 500"><g fill="none" stroke="#ea959b" stroke-width="2"><path d="M269.12 156.24a.1.09 22.5 0 1-.07-.16l35.88-34.77q.38-.36.08-.79c-12.73-18.2-38.1-26.66-59.12-25.49-52.29 2.91-78.61 65.02-41.76 103.4 39.2 40.84 107.95 15.35 111.25-40.71a1.38 1.38 0 0 0-1.38-1.46l-44.88-.02M72.23 268.1q1.32.25 1.6 1.64 1.88 9.39 1.8 20.76c-.09 13.59-.13 27.1.15 40.69q.01.61.62.59 9.55-.39 19.16-.02c4.86.18 8.64-3.03 11.31-6.75q.36-.49-.05-.93l-2.3-2.49a.8.8 0 0 0-.98-.15c-4.89 2.78-7.23 4.69-13.19 2.98a.64.64 0 0 1-.46-.63q.48-20.89.3-41.79-.1-11.11-3.85-21.68-.18-.49-.68-.36l-15.35 3.86q-.47.12-.63.58-.76 2.19.57 3.18.25.19 1.98.52M459.53 314.54q1.93.94 3.38 2.55c8.43 9.41 15.38 21.09 30.12 14.53 1.59-.71 2.2-1.77 1.47-3.43q-.19-.43-.62-.62-7.07-3.11-11.59-9.15-5.88-7.87-13.28-13.74-.42-.34-.06-.74c7.6-8.47 15.72-16.73 21.08-26.9q.31-.58-.35-.58l-13.4.12q-.75.01-.96.72-4.66 15.68-16.29 27.17-.92.91-.87-.39c.51-14.3.72-30.1-3.84-43.57a.57.57 0 0 0-.68-.37l-15.61 3.96q-.66.17-.5.83l.6 2.6q.12.51.63.67l2.63.78q.6.18.71.79c3.6 20 1.88 42.29 1.92 62.66q0 .55.55.47l12.87-1.73a.8.8 0 0 0 .69-.77l.47-15.29a.65.65 0 0 1 .93-.57M36.25 326.24c-13.07-4.79-17-21.87-13.59-33.6q2.15-7.38 9.26-8.69c7.66-1.41 16.16 5.62 20.58 11.29a.94.94 0 0 0 1.51-.04l6.88-9.85q.34-.49-.11-.86c-5.2-4.3-16.67-10.65-23.56-8.33-14.24 4.81-29.11 11.93-30.03 28.87-.67 12.23 5.52 22.17 16.79 26.97 8.47 3.6 16.68 1.22 24.22-2.73a.58.58 0 0 1 .84.54c-.4 8.28.84 10.6-7.42 14.51q-.75.35-.23 1l1.98 2.5a.73.73 0 0 0 .72.26c12.46-2.53 19.38-10.33 19.85-23.09q.41-11.13.35-22.21 0-.35-.35-.31l-18.23 1.97q-.53.06-.5.6l.14 2.91q.03.55.59.55h2.45a1.16 1.16 0 0 1 1.16 1.21l-.45 10.51a.95.92-21.9 0 1-.29.65c-4.04 3.9-6.22 7.69-12.56 5.37M120.67 308.56a.44.44 0 0 1 .43-.57c11.42.22 22.42.35 32.63-5.84q.53-.33.46-.95-.23-1.96-1.86-3.17-.44-.33-.94-.1-4.92 2.28-10.39 2.25-10.03-.05-19.39-.34a1.13 1.12 4.8 0 1-1.08-1.27c.7-5.16 3.89-14.41 9.62-15.42 5.55-.99 14.06 5.5 18.37 9.49a.73.73 0 0 0 .94.05l8.87-6.81a.76.76 0 0 0 .06-1.15c-5.21-4.99-14.56-10.35-22.1-8.69-14.61 3.23-28.95 11.04-30.03 27.69-1.14 17.52 12.08 31.25 29.7 29.04 11.4-1.43 21.16-3.41 23.95-16.32q.13-.61-.46-.81l-8.24-2.67a1 1 0 0 0-1.31.82c-.62 4.68-4.36 14.51-10.95 12.52q-13.78-4.17-18.28-17.75M182.79 284.75l-3.03-8.5a.68.67 72.9 0 0-.79-.42l-15.28 3.79a.7.7 0 0 0-.49.93l1.06 2.85a1.06 1.03-1.5 0 0 .69.64c6.84 1.96 3.71 40.52 3.48 47.5q-.05 1.35 1.3 1.18l11.52-1.49q1.8-.23 1.77-2.04-.24-13.81.27-27.05.18-4.94 1.51-8.06c1.26-3 4.68-9.68 8.7-9.1 5.98.87 14.55 6.06 13.67 13.45q-1.07 8.98-2.73 26.64c-.36 3.83.2 8.05 5.05 7.44q5.76-.71 12.04-1.62a.92.91 82.9 0 0 .78-1.01l-.32-2.92q-.06-.54-.59-.62l-2.2-.35q-.67-.11-.59-.78 1.25-10.96 2.55-21.93c.99-8.43.84-13.38-4.63-19.31q-6.17-6.68-14.82-7.97c-5.87-.88-14.29 5.04-18.27 8.9a.4.4 0 0 1-.65-.15M279.12 284.68c-8.7-12.05-19.66-10.89-29.83-1.64q-.43.39-.64-.14l-2.69-6.64q-.22-.55-.8-.41l-14.88 3.83q-.58.15-.51.75.35 3.01 3.02 4.21a1.18 1.16-88.3 0 1 .61.66q2.46 6.68 2.36 12.95-.26 17-.61 33.91a.58.57-2.7 0 0 .64.58l13.13-1.44q.48-.05.49-.54.07-17.14.32-34.28c.05-3.91 2.28-9.67 6.29-11.04 4.35-1.48 9.48 2.24 11 5.94q1.02 2.48.96 8.88-.15 15.17-.54 31.31a1.16 1.16 0 0 0 1.29 1.19l12.37-1.41q.64-.07.65-.71.23-9.67.2-33.64 0-5.31 3.59-9.52c4.92-5.77 12.67.32 14.6 5.31q1.01 2.62.47 7.98-1.19 11.62-2.32 23.22-.49 5.02 1.4 8.2a1.07 1.07 0 0 0 1.03.52l14.55-1.65a1.12 1.11-8.8 0 0 .97-1.32l-.59-3.03q-.14-.71-.86-.71h-1.31q-1.22 0-1.09-1.21 1.64-14.56 3.2-28.06c.96-8.26-6.04-15.75-13-19.22-8.43-4.21-16.49.54-22.56 7.22a.59.58-41.7 0 1-.91-.05M346.83 300.79c-8.34 3.26-31.5 14.26-22.49 26.87 7.12 9.96 23.92 1.3 31.64-3.67q.32-.2.55.1l7.03 9.36q.59.79 1.41.24l10-6.65a1.13 1.13 0 0 0 .25-1.65c-9.33-11.55-11.9-24.13-16.65-37.65-2.2-6.25-9.98-15.3-17.54-10.99q-4.76 2.71-10.87 7.83-.54.45.02.87l3 2.23a.88.88 0 0 0 1.04 0l3.26-2.36q.39-.28.82-.07c5.01 2.44 7.93 9.89 8.92 14.83q.1.52-.39.71M396.36 282.04l-2.6-5.49a1.06 1.05-19.7 0 0-1.21-.57l-14.56 3.68q-.54.14-.49.69.25 3.1 2.94 4.3.5.22.68.73 2.51 7.1 2.37 13.88-.36 16.48-.73 33.03-.01.53.51.47l12.99-1.43a.84.83 86.9 0 0 .74-.83v-11.48q0-2.19 1.63-.72c11.43 10.39 20.83 19.63 37.22 13.38q.53-.2.55-.76l.14-3.12q.04-.76-.71-.59c-6.81 1.6-15.37-7.59-19.35-12.33q-.36-.42.17-.61c11.89-4.27 20.96-13.48 14.12-26.88-3.42-6.7-10.47-10.42-17.89-11.47-5.42-.76-11.61 3.22-15.76 6.31q-.5.37-.76-.19" vector-effect="non-scaling-stroke"/><path d="m229.44 152.47 35.82.06a.76.76 0 0 0 .76-.76l.03-16.43a18.59 18.38-89.9 0 0-18.35-18.62h-.58a18.59 18.38-89.9 0 0-18.41 18.56l-.03 16.43a.76.76 0 0 0 .76.76M265.21 162.21l-35.72.06a.81.81 0 0 0-.81.81l.03 16.13a18.8 18.51 89.9 0 0 18.54 18.77h.32a18.8 18.51 89.9 0 0 18.48-18.83l-.03-16.13a.81.81 0 0 0-.81-.81M337.1 311.35c-6.79 5.97 4.04 18.19 12.76 10.41 4.27-3.82 2.19-9.29-.38-14.33a.8.78-12.4 0 0-.69-.43q-6.68-.05-11.69 4.35M418.52 301.52c.56-8.13-5.96-16.72-14.53-16.91-7.88-.16-6.8 22.94-6.67 27.44q.01.49.5.54c7.07.8 20.08-1.98 20.7-11.07" vector-effect="non-scaling-stroke"/></g><path fill="#fff" d="M0 0h500v500H0V0Zm269.12 156.24a.1.09 22.5 0 1-.07-.16l35.88-34.77q.38-.36.08-.79c-12.73-18.2-38.1-26.66-59.12-25.49-52.29 2.91-78.61 65.02-41.76 103.4 39.2 40.84 107.95 15.35 111.25-40.71a1.38 1.38 0 0 0-1.38-1.46l-44.88-.02ZM72.23 268.1q1.32.25 1.6 1.64 1.88 9.39 1.8 20.76c-.09 13.59-.13 27.1.15 40.69q.01.61.62.59 9.55-.39 19.16-.02c4.86.18 8.64-3.03 11.31-6.75q.36-.49-.05-.93l-2.3-2.49a.8.8 0 0 0-.98-.15c-4.89 2.78-7.23 4.69-13.19 2.98a.64.64 0 0 1-.46-.63q.48-20.89.3-41.79-.1-11.11-3.85-21.68-.18-.49-.68-.36l-15.35 3.86q-.47.12-.63.58-.76 2.19.57 3.18.25.19 1.98.52Zm387.3 46.44q1.93.94 3.38 2.55c8.43 9.41 15.38 21.09 30.12 14.53 1.59-.71 2.2-1.77 1.47-3.43q-.19-.43-.62-.62-7.07-3.11-11.59-9.15-5.88-7.87-13.28-13.74-.42-.34-.06-.74c7.6-8.47 15.72-16.73 21.08-26.9q.31-.58-.35-.58l-13.4.12q-.75.01-.96.72-4.66 15.68-16.29 27.17-.92.91-.87-.39c.51-14.3.72-30.1-3.84-43.57a.57.57 0 0 0-.68-.37l-15.61 3.96q-.66.17-.5.83l.6 2.6q.12.51.63.67l2.63.78q.6.18.71.79c3.6 20 1.88 42.29 1.92 62.66q0 .55.55.47l12.87-1.73a.8.8 0 0 0 .69-.77l.47-15.29a.65.65 0 0 1 .93-.57Zm-423.28 11.7c-13.07-4.79-17-21.87-13.59-33.6q2.15-7.38 9.26-8.69c7.66-1.41 16.16 5.62 20.58 11.29a.94.94 0 0 0 1.51-.04l6.88-9.85q.34-.49-.11-.86c-5.2-4.3-16.67-10.65-23.56-8.33-14.24 4.81-29.11 11.93-30.03 28.87-.67 12.23 5.52 22.17 16.79 26.97 8.47 3.6 16.68 1.22 24.22-2.73a.58.58 0 0 1 .84.54c-.4 8.28.84 10.6-7.42 14.51q-.75.35-.23 1l1.98 2.5a.73.73 0 0 0 .72.26c12.46-2.53 19.38-10.33 19.85-23.09q.41-11.13.35-22.21 0-.35-.35-.31l-18.23 1.97q-.53.06-.5.6l.14 2.91q.03.55.59.55h2.45a1.16 1.16 0 0 1 1.16 1.21l-.45 10.51a.95.92-21.9 0 1-.29.65c-4.04 3.9-6.22 7.69-12.56 5.37Zm84.42-17.68a.44.44 0 0 1 .43-.57c11.42.22 22.42.35 32.63-5.84q.53-.33.46-.95-.23-1.96-1.86-3.17-.44-.33-.94-.1-4.92 2.28-10.39 2.25-10.03-.05-19.39-.34a1.13 1.12 4.8 0 1-1.08-1.27c.7-5.16 3.89-14.41 9.62-15.42 5.55-.99 14.06 5.5 18.37 9.49a.73.73 0 0 0 .94.05l8.87-6.81a.76.76 0 0 0 .06-1.15c-5.21-4.99-14.56-10.35-22.1-8.69-14.61 3.23-28.95 11.04-30.03 27.69-1.14 17.52 12.08 31.25 29.7 29.04 11.4-1.43 21.16-3.41 23.95-16.32q.13-.61-.46-.81l-8.24-2.67a1 1 0 0 0-1.31.82c-.62 4.68-4.36 14.51-10.95 12.52q-13.78-4.17-18.28-17.75Zm62.12-23.81-3.03-8.5a.68.67 72.9 0 0-.79-.42l-15.28 3.79a.7.7 0 0 0-.49.93l1.06 2.85a1.06 1.03-1.5 0 0 .69.64c6.84 1.96 3.71 40.52 3.48 47.5q-.05 1.35 1.3 1.18l11.52-1.49q1.8-.23 1.77-2.04-.24-13.81.27-27.05.18-4.94 1.51-8.06c1.26-3 4.68-9.68 8.7-9.1 5.98.87 14.55 6.06 13.67 13.45q-1.07 8.98-2.73 26.64c-.36 3.83.2 8.05 5.05 7.44q5.76-.71 12.04-1.62a.92.91 82.9 0 0 .78-1.01l-.32-2.92q-.06-.54-.59-.62l-2.2-.35q-.67-.11-.59-.78 1.25-10.96 2.55-21.93c.99-8.43.84-13.38-4.63-19.31q-6.17-6.68-14.82-7.97c-5.87-.88-14.29 5.04-18.27 8.9a.4.4 0 0 1-.65-.15Zm96.33-.07c-8.7-12.05-19.66-10.89-29.83-1.64q-.43.39-.64-.14l-2.69-6.64q-.22-.55-.8-.41l-14.88 3.83q-.58.15-.51.75.35 3.01 3.02 4.21a1.18 1.16-88.3 0 1 .61.66q2.46 6.68 2.36 12.95-.26 17-.61 33.91a.58.57-2.7 0 0 .64.58l13.13-1.44q.48-.05.49-.54.07-17.14.32-34.28c.05-3.91 2.28-9.67 6.29-11.04 4.35-1.48 9.48 2.24 11 5.94q1.02 2.48.96 8.88-.15 15.17-.54 31.31a1.16 1.16 0 0 0 1.29 1.19l12.37-1.41q.64-.07.65-.71.23-9.67.2-33.64 0-5.31 3.59-9.52c4.92-5.77 12.67.32 14.6 5.31q1.01 2.62.47 7.98-1.19 11.62-2.32 23.22-.49 5.02 1.4 8.2a1.07 1.07 0 0 0 1.03.52l14.55-1.65a1.12 1.11-8.8 0 0 .97-1.32l-.59-3.03q-.14-.71-.86-.71h-1.31q-1.22 0-1.09-1.21 1.64-14.56 3.2-28.06c.96-8.26-6.04-15.75-13-19.22-8.43-4.21-16.49.54-22.56 7.22a.59.58-41.7 0 1-.91-.05Zm67.71 16.11c-8.34 3.26-31.5 14.26-22.49 26.87 7.12 9.96 23.92 1.3 31.64-3.67q.32-.2.55.1l7.03 9.36q.59.79 1.41.24l10-6.65a1.13 1.13 0 0 0 .25-1.65c-9.33-11.55-11.9-24.13-16.65-37.65-2.2-6.25-9.98-15.3-17.54-10.99q-4.76 2.71-10.87 7.83-.54.45.02.87l3 2.23a.88.88 0 0 0 1.04 0l3.26-2.36q.39-.28.82-.07c5.01 2.44 7.93 9.89 8.92 14.83q.1.52-.39.71Zm49.53-18.75-2.6-5.49a1.06 1.05-19.7 0 0-1.21-.57l-14.56 3.68q-.54.14-.49.69.25 3.1 2.94 4.3.5.22.68.73 2.51 7.1 2.37 13.88-.36 16.48-.73 33.03-.01.53.51.47l12.99-1.43a.84.83 86.9 0 0 .74-.83v-11.48q0-2.19 1.63-.72c11.43 10.39 20.83 19.63 37.22 13.38q.53-.2.55-.76l.14-3.12q.04-.76-.71-.59c-6.81 1.6-15.37-7.59-19.35-12.33q-.36-.42.17-.61c11.89-4.27 20.96-13.48 14.12-26.88-3.42-6.7-10.47-10.42-17.89-11.47-5.42-.76-11.61 3.22-15.76 6.31q-.5.37-.76-.19Z"/><path fill="#d52a37" d="m269.12 156.24 44.88.02a1.38 1.38 0 0 1 1.38 1.46c-3.3 56.06-72.05 81.55-111.25 40.71-36.85-38.38-10.53-100.49 41.76-103.4 21.02-1.17 46.39 7.29 59.12 25.49q.3.43-.08.79l-35.88 34.77a.1.09 22.5 0 0 .07.16Zm-39.68-3.77 35.82.06a.76.76 0 0 0 .76-.76l.03-16.43a18.59 18.38-89.9 0 0-18.35-18.62h-.58a18.59 18.38-89.9 0 0-18.41 18.56l-.03 16.43a.76.76 0 0 0 .76.76Zm35.77 9.74-35.72.06a.81.81 0 0 0-.81.81l.03 16.13a18.8 18.51 89.9 0 0 18.54 18.77h.32a18.8 18.51 89.9 0 0 18.48-18.83l-.03-16.13a.81.81 0 0 0-.81-.81Z"/><path fill="#fff" d="M229.44 152.47a.76.76 0 0 1-.76-.76l.03-16.43a18.59 18.38-89.9 0 1 18.41-18.56h.58a18.59 18.38-89.9 0 1 18.35 18.62l-.03 16.43a.76.76 0 0 1-.76.76l-35.82-.06ZM265.21 162.21a.81.81 0 0 1 .81.81l.03 16.13a18.8 18.51 89.9 0 1-18.48 18.83h-.32a18.8 18.51 89.9 0 1-18.54-18.77l-.03-16.13a.81.81 0 0 1 .81-.81l35.72-.06Z"/><path fill="#d52a37" d="M70.25 267.58q-1.33-.99-.57-3.18.16-.46.63-.58l15.35-3.86q.5-.13.68.36 3.75 10.57 3.85 21.68.18 20.9-.3 41.79a.64.64 0 0 0 .46.63c5.96 1.71 8.3-.2 13.19-2.98a.8.8 0 0 1 .98.15l2.3 2.49q.41.44.05.93c-2.67 3.72-6.45 6.93-11.31 6.75q-9.61-.37-19.16.02-.61.02-.62-.59c-.28-13.59-.24-27.1-.15-40.69q.08-11.37-1.8-20.76-.28-1.39-1.6-1.64-1.73-.33-1.98-.52ZM458.6 315.11l-.47 15.29a.8.8 0 0 1-.69.77l-12.87 1.73q-.55.08-.55-.47c-.04-20.37 1.68-42.66-1.92-62.66q-.11-.61-.71-.79l-2.63-.78q-.51-.16-.63-.67l-.6-2.6q-.16-.66.5-.83l15.61-3.96a.57.57 0 0 1 .68.37c4.56 13.47 4.35 29.27 3.84 43.57q-.05 1.3.87.39 11.63-11.49 16.29-27.17.21-.71.96-.72l13.4-.12q.66 0 .35.58c-5.36 10.17-13.48 18.43-21.08 26.9q-.36.4.06.74 7.4 5.87 13.28 13.74 4.52 6.04 11.59 9.15.43.19.62.62c.73 1.66.12 2.72-1.47 3.43-14.74 6.56-21.69-5.12-30.12-14.53q-1.45-1.61-3.38-2.55a.65.65 0 0 0-.93.57ZM22.66 292.64c-3.41 11.73.52 28.81 13.59 33.6 6.34 2.32 8.52-1.47 12.56-5.37a.95.92-21.9 0 0 .29-.65l.45-10.51a1.16 1.16 0 0 0-1.16-1.21h-2.45q-.56 0-.59-.55l-.14-2.91q-.03-.54.5-.6l18.23-1.97q.35-.04.35.31.06 11.08-.35 22.21c-.47 12.76-7.39 20.56-19.85 23.09a.73.73 0 0 1-.72-.26l-1.98-2.5q-.52-.65.23-1c8.26-3.91 7.02-6.23 7.42-14.51a.58.58 0 0 0-.84-.54c-7.54 3.95-15.75 6.33-24.22 2.73-11.27-4.8-17.46-14.74-16.79-26.97.92-16.94 15.79-24.06 30.03-28.87 6.89-2.32 18.36 4.03 23.56 8.33q.45.37.11.86l-6.88 9.85a.94.94 0 0 1-1.51.04c-4.42-5.67-12.92-12.7-20.58-11.29q-7.11 1.31-9.26 8.69ZM120.67 308.56q4.5 13.58 18.28 17.75c6.59 1.99 10.33-7.84 10.95-12.52a1 1 0 0 1 1.31-.82l8.24 2.67q.59.2.46.81c-2.79 12.91-12.55 14.89-23.95 16.32-17.62 2.21-30.84-11.52-29.7-29.04 1.08-16.65 15.42-24.46 30.03-27.69 7.54-1.66 16.89 3.7 22.1 8.69a.76.76 0 0 1-.06 1.15l-8.87 6.81a.73.73 0 0 1-.94-.05c-4.31-3.99-12.82-10.48-18.37-9.49-5.73 1.01-8.92 10.26-9.62 15.42a1.13 1.12 4.8 0 0 1.08 1.27q9.36.29 19.39.34 5.47.03 10.39-2.25.5-.23.94.1 1.63 1.21 1.86 3.17.07.62-.46.95c-10.21 6.19-21.21 6.06-32.63 5.84a.44.44 0 0 0-.43.57ZM182.79 284.75a.4.4 0 0 0 .65.15c3.98-3.86 12.4-9.78 18.27-8.9q8.65 1.29 14.82 7.97c5.47 5.93 5.62 10.88 4.63 19.31q-1.3 10.97-2.55 21.93-.08.67.59.78l2.2.35q.53.08.59.62l.32 2.92a.92.91 82.9 0 1-.78 1.01q-6.28.91-12.04 1.62c-4.85.61-5.41-3.61-5.05-7.44q1.66-17.66 2.73-26.64c.88-7.39-7.69-12.58-13.67-13.45-4.02-.58-7.44 6.1-8.7 9.1q-1.33 3.12-1.51 8.06-.51 13.24-.27 27.05.03 1.81-1.77 2.04l-11.52 1.49q-1.35.17-1.3-1.18c.23-6.98 3.36-45.54-3.48-47.5a1.06 1.03-1.5 0 1-.69-.64l-1.06-2.85a.7.7 0 0 1 .49-.93l15.28-3.79a.68.67 72.9 0 1 .79.42l3.03 8.5ZM280.03 284.73c6.07-6.68 14.13-11.43 22.56-7.22 6.96 3.47 13.96 10.96 13 19.22q-1.56 13.5-3.2 28.06-.13 1.21 1.09 1.21h1.31q.72 0 .86.71l.59 3.03a1.12 1.11-8.8 0 1-.97 1.32l-14.55 1.65a1.07 1.07 0 0 1-1.03-.52q-1.89-3.18-1.4-8.2 1.13-11.6 2.32-23.22.54-5.36-.47-7.98c-1.93-4.99-9.68-11.08-14.6-5.31q-3.59 4.21-3.59 9.52.03 23.97-.2 33.64-.01.64-.65.71l-12.37 1.41a1.16 1.16 0 0 1-1.29-1.19q.39-16.14.54-31.31.06-6.4-.96-8.88c-1.52-3.7-6.65-7.42-11-5.94-4.01 1.37-6.24 7.13-6.29 11.04q-.25 17.14-.32 34.28-.01.49-.49.54l-13.13 1.44a.58.57-2.7 0 1-.64-.58q.35-16.91.61-33.91.1-6.27-2.36-12.95a1.18 1.16-88.3 0 0-.61-.66q-2.67-1.2-3.02-4.21-.07-.6.51-.75l14.88-3.83q.58-.14.8.41l2.69 6.64q.21.53.64.14c10.17-9.25 21.13-10.41 29.83 1.64a.59.58-41.7 0 0 .91.05ZM347.22 300.08c-.99-4.94-3.91-12.39-8.92-14.83q-.43-.21-.82.07l-3.26 2.36a.88.88 0 0 1-1.04 0l-3-2.23q-.56-.42-.02-.87 6.11-5.12 10.87-7.83c7.56-4.31 15.34 4.74 17.54 10.99 4.75 13.52 7.32 26.1 16.65 37.65a1.13 1.13 0 0 1-.25 1.65l-10 6.65q-.82.55-1.41-.24l-7.03-9.36q-.23-.3-.55-.1c-7.72 4.97-24.52 13.63-31.64 3.67-9.01-12.61 14.15-23.61 22.49-26.87q.49-.19.39-.71Zm-10.12 11.27c-6.79 5.97 4.04 18.19 12.76 10.41 4.27-3.82 2.19-9.29-.38-14.33a.8.78-12.4 0 0-.69-.43q-6.68-.05-11.69 4.35ZM397.12 282.23c4.15-3.09 10.34-7.07 15.76-6.31 7.42 1.05 14.47 4.77 17.89 11.47 6.84 13.4-2.23 22.61-14.12 26.88q-.53.19-.17.61c3.98 4.74 12.54 13.93 19.35 12.33q.75-.17.71.59l-.14 3.12q-.02.56-.55.76c-16.39 6.25-25.79-2.99-37.22-13.38q-1.63-1.47-1.63.72v11.48a.84.83 86.9 0 1-.74.83l-12.99 1.43q-.52.06-.51-.47.37-16.55.73-33.03.14-6.78-2.37-13.88-.18-.51-.68-.73-2.69-1.2-2.94-4.3-.05-.55.49-.69l14.56-3.68a1.06 1.05-19.7 0 1 1.21.57l2.6 5.49q.26.56.76.19Zm21.4 19.29c.56-8.13-5.96-16.72-14.53-16.91-7.88-.16-6.8 22.94-6.67 27.44q.01.49.5.54c7.07.8 20.08-1.98 20.7-11.07Z"/><path fill="#fff" d="M403.99 284.61c8.57.19 15.09 8.78 14.53 16.91-.62 9.09-13.63 11.87-20.7 11.07q-.49-.05-.5-.54c-.13-4.5-1.21-27.6 6.67-27.44ZM349.86 321.76c-8.72 7.78-19.55-4.44-12.76-10.41q5.01-4.4 11.69-4.35a.8.78-12.4 0 1 .69.43c2.57 5.04 4.65 10.51.38 14.33Z"/></svg>